<svg xmlns="http://www.w3.org/2000/svg" xmlns:xlink="http://www.w3.org/1999/xlink" width="790.523" height="730.492" xmlns:v="https://vecta.io/nano"><path d="M47.913 58.34C21.464 58.37.03 79.804 0 106.253v551.99c.03 26.449 21.464 47.883 47.913 47.913h404.925c26.449-.03 47.882-21.464 47.913-47.913v-551.99c-.03-26.449-21.464-47.883-47.913-47.913z" fill="#3f3d56"/><path fill="#fff" d="M24.916 92.371h450.919v579.753H24.916z"/><g fill="#6c63ff"><use xlink:href="#B"/><use xlink:href="#B" y="58.34"/><use xlink:href="#B" y="116.68"/><use xlink:href="#B" y="175.02"/><use xlink:href="#B" y="233.36"/><use xlink:href="#B" y="291.7"/><use xlink:href="#B" y="350.04"/></g><path fill="#e6e6e6" d="M91.351 116.043l330.224-60.432 77.698 424.574-330.224 60.432z"/><g fill="#6c63ff"><use xlink:href="#C"/><use xlink:href="#C" x="7.818" y="42.725"/><use xlink:href="#C" x="15.637" y="85.449"/><use xlink:href="#C" x="23.456" y="128.174"/><path d="M179.719 355.142l243.884-44.631 2.932 16.022-243.884 44.631z"/><use xlink:href="#C" x="39.093" y="213.622"/><use xlink:href="#C" x="46.912" y="256.347"/></g><path fill="#e6e6e6" d="M561.874 537.161l93.438-17.099 21.985 120.135-93.438 17.099z"/><g fill="#fff"><use xlink:href="#D"/><use xlink:href="#D" x="2.212" y="12.089"/><use xlink:href="#D" x="4.425" y="24.178"/><use xlink:href="#D" x="6.637" y="36.267"/><use xlink:href="#D" x="8.849" y="48.356"/><use xlink:href="#D" x="11.062" y="60.445"/><use xlink:href="#D" x="13.274" y="72.534"/></g><path d="M333.866 30.385H294.13V22.25C294.13 9.962 284.168 0 271.88 0h-43.008c-12.289 0-22.251 9.962-22.251 22.251v8.135h-39.735a22.25 22.25 0 0 0-22.251 22.251v61.613h211.482V52.636a22.25 22.25 0 0 0-22.251-22.251zm-97.754 599.58c6.57-4.496 13.322-9.172 21.124-11.216 7.118-1.865 15.292-1.371 20.922 3.841 4.544 4.206 6.462 10.671 3.096 16.205a10.3 10.3 0 0 1-6.822 4.964 8.22 8.22 0 0 1-7.389-2.887c-1.765-1.95-2.821-4.833-1.883-7.404.986-2.703 3.625-4.357 6.216-5.279 3.016-.955 6.122-1.597 9.27-1.915l12.892-1.765 52.769-7.224 58.765-8.045c.966-.273 1.534-1.273 1.273-2.243a1.87 1.87 0 0 0-2.243-1.273l-116.931 16.008c-4.229.579-8.519.994-12.704 1.844-3.295.533-6.419 1.831-9.122 3.789-5.601 4.435-5.201 12.279-.047 16.918 5.218 4.697 12.784 3.888 17.363-1.299 4.763-5.401 5.254-13.344 1.194-19.291-4.999-7.537-14.107-10.433-22.81-9.364-10.065 1.236-18.598 6.894-26.773 12.489-1.925 1.317-.103 4.478 1.84 3.148z" fill="#3f3d56"/><path d="M646.406 494.837l1.215 12.154s-7.292 26.739 8.508 26.739 3.646-26.739 3.646-26.739l1.215-9.723zm110.396-40.493l-5.577 10.867s-20.639 18.498-7.369 27.075 17.577-20.477 17.577-20.477l6.299-7.506z" fill="#a0616a"/><g fill="#2f2e41"><path d="M665.853 505.775l17.016 115.464 8.508 82.648s7.292 18.231 31.601 2.431l-3.646-47.401-2.431-42.539s-2.431-41.324-4.862-48.617 1.215-31.601 1.215-31.601l9.723-40.109z"/><use xlink:href="#E"/><path d="M712.039 499.698l17.016 121.541 8.508 82.648s7.292 18.231 31.601 2.431l-3.646-47.401-2.431-42.539s-2.431-41.324-4.862-48.617 1.215-31.601 1.215-31.601l-2.431-44.97z"/><use xlink:href="#E" x="46.186"/></g><g fill="#a0616a"><circle cx="675.576" cy="282.139" r="25.524"/><path d="M694.415 293.685l10.939 18.232-27.955 12.154-3.646-21.878 20.662-8.508z"/></g><g fill="#575a89"><path d="M708.392 310.094s-25.524-2.431-35.247 13.37l-23.99 18.232a13.83 13.83 0 0 0-5.342 12.824l20.823 157.333 30.385-1.215 49.832-9.723 14.585-3.646-7.292-64.417s-8.508-25.524 1.215-42.539l-4.862-59.555-34.032-13.37z"/><path d="M651.268 346.556l-1.823-3.039s-2.431 0-2.431 4.862-4.254 109.995-4.254 109.995l-1.215 40.109 23.093 2.431 8.508-75.356-3.646-49.832zm80.217-18.231l17.016 2.431a112.95 112.95 0 0 1 17.016 23.093c7.292 13.37 29.17 38.893 24.308 58.34s-19.447 54.694-19.447 54.694l-23.093-9.723s18.231-42.539 17.016-46.186-15.8-25.524-15.8-25.524z"/></g><path d="M657.953 268.162s-20.662-1.215-7.292-14.585c0 0 10.939-4.862 15.8-2.431 0 0 7.292-4.862 7.292-2.431 0 0 25.524-7.292 29.17 18.231s-2.431 37.678-2.431 37.678l-17.016-1.215s3.646-20.662-9.723-18.231c0 0-10.939 3.646-12.154 0s-3.646-17.016-3.646-17.016z" fill="#2f2e41"/><path opacity=".2" d="M667.676 499.09l10.939-72.924-7.293-44.971 2.431 48.914-7.292 68.981h1.215z"/><defs ><path id="B" d="M83.864 196.289h333.024v21.877H83.864z"/><path id="C" d="M148.448 184.245l243.885-44.632 2.932 16.022-243.885 44.632z"/><path id="D" d="M578.03 556.46l69.008-12.629.83 4.533-69.008 12.629z"/><path id="E" d="M693.807 701.457l-9.723 10.939s-14.585-4.862-18.231 4.862 27.955 12.154 27.955 12.154 32.816 2.431 32.816 0-.879-21.022-5.301-22.057-27.515-5.897-27.515-5.897z"/></defs></svg>