<svg xmlns="http://www.w3.org/2000/svg" xmlns:xlink="http://www.w3.org/1999/xlink" width="943" height="601.742" xmlns:v="https://vecta.io/nano"><style><![CDATA[.B{fill:#3f3d56}.C{fill:#6c63ff}.D{fill:#2f2e41}.E{fill:#a0616a}.F{fill:#ffb8b8}]]></style><path d="M167.722 596.506c8.993-7.599 14.455-19.602 13.022-31.288s-10.305-22.428-21.813-24.91-24.628 4.388-28.123 15.63c-1.924-21.675-4.141-44.257-15.664-62.715-10.434-16.713-28.507-28.672-48.093-30.811s-40.208 5.941-52.424 21.4-15.206 37.934-6.651 55.682c6.302 13.075 17.914 22.805 30.079 30.721a194.13 194.13 0 0 0 132.772 29.046z" fill="#f2f2f2"/><path d="M33.996 468.801c16.161 13.164 30.987 27.886 44.264 43.954 13.279 16.052 24.969 33.354 34.908 51.663 5.555 10.271 10.545 20.837 14.948 31.651.898 2.2-2.675 3.158-3.562.982-7.799-19.066-17.448-37.322-28.808-54.506a317.26 317.26 0 0 0-38.636-47.729 316.5 316.5 0 0 0-25.726-23.403c-1.844-1.502.783-4.102 2.612-2.612z" fill="#fff"/><g class="B"><path d="M704.354 0h-487a7.01 7.01 0 0 0-7 7v330a7.01 7.01 0 0 0 7 7h487a7.01 7.01 0 0 0 7-7V7a7.01 7.01 0 0 0-7-7zm5 337c-.001 2.761-2.239 4.999-5 5h-487c-2.761-.001-4.999-2.239-5-5V7c.001-2.761 2.239-4.999 5-5h487c2.761.001 4.999 2.239 5 5z"/><path d="M211.354 28.04h499v2h-499z"/><circle cx="228.354" cy="15" r="6"/><circle cx="245.604" cy="15" r="6"/><circle cx="262.854" cy="15" r="6"/></g><path d="M502.854 74.5h-84a7 7 0 1 1 0-14h84a7 7 0 1 1 0 14zm57.5 34h-199a7 7 0 1 1 0-14h199a7 7 0 1 1 0 14z" fill="#ccc"/><g class="B"><path d="M620.035 317.451c-21.063 0-38.138-17.075-38.138-38.138s17.075-38.138 38.138-38.138 38.138 17.075 38.138 38.138c-.024 21.053-17.085 38.114-38.138 38.138zm0-73.646a35.51 35.51 0 0 0-25.108 60.615 35.51 35.51 0 0 0 60.615-25.108c-.022-19.601-15.907-35.486-35.508-35.508z"/><use xlink:href="#B"/></g><path d="M315.113 197.387a3.77 3.77 0 0 1-3.769-3.763v-21.398a3.77 3.77 0 0 1 3.762-3.763h.007a3.77 3.77 0 0 1 3.762 3.763v21.398a3.77 3.77 0 0 1-3.762 3.763zm-9.824 0a3.78 3.78 0 0 1-3.817-3.763v-11.527c.002-2.077 1.686-3.76 3.762-3.762h.054c2.077.002 3.76 1.685 3.762 3.762v11.527a3.77 3.77 0 0 1-3.762 3.763zm-9.919 0a3.77 3.77 0 0 1-3.769-3.763v-32.909a3.77 3.77 0 0 1 3.762-3.763h.007a3.77 3.77 0 0 1 3.762 3.763v32.909a3.77 3.77 0 0 1-3.762 3.763zm-9.881 0a3.76 3.76 0 0 1-3.766-3.765l.004-4.943c.001-2.078 1.686-3.762 3.764-3.761s3.762 1.686 3.761 3.764v4.942a3.77 3.77 0 0 1-3.762 3.763z" class="C"/><use xlink:href="#B" x="578.543" y="384" class="B"/><path d="M889.356 554.551l-7.435 11.369a4.03 4.03 0 0 1 .919 2.575 4.091 4.091 0 1 1-8.181 0c.002-.263.026-.526.071-.785l-4.907-2.858c-1.302 1.26-3.279 1.509-4.852.612l-5.221 4.892v4.876a3.65 3.65 0 0 0 3.635 3.643h30.912a3.66 3.66 0 0 0 3.643-3.643V557.15l-4.994-3.321c-1.017.79-2.345 1.057-3.588.722zm-22.369 3.298a4.09 4.09 0 0 1 4.091 4.091h0v.526l5.119 2.866a4.08 4.08 0 0 1 2.591-.926 4.52 4.52 0 0 1 .887.094l7.451-11.534c-1.021-1.435-1.005-3.364.041-4.782s2.884-2.003 4.557-1.451 2.802 2.116 2.799 3.878c0 .325-.037.649-.11.966l3.525 2.355v-6.823a3.66 3.66 0 0 0-3.643-3.643h-30.912a3.65 3.65 0 0 0-3.635 3.643v19.543l3.408-3.266a4.08 4.08 0 0 1 .481-3.748c.764-1.095 2.015-1.748 3.35-1.748z" class="C"/><use xlink:href="#B" x="162.068" class="B"/><path d="M442.105 190.995c-1.121 0-2.131-.675-2.561-1.71s-.194-2.227.597-3.021l14.092-14.131a2.35 2.35 0 0 1 1.675-.696h.002a2.35 2.35 0 0 1 1.675.693l6.535 6.535a1.41 1.41 0 0 0 1.005.416h.001a1.41 1.41 0 0 0 1.005-.417l9.227-9.243c.089-.089.139-.209.139-.335s-.05-.246-.139-.335l-2.985-2.98a1.42 1.42 0 0 1 1.004-2.427h10.604c.784.001 1.42.637 1.421 1.421v10.597a1.42 1.42 0 0 1-2.426 1.005l-2.99-2.99c-.089-.089-.209-.139-.335-.139s-.246.05-.335.139l-12.495 12.486a2.35 2.35 0 0 1-1.674.693h0c-.628.002-1.231-.248-1.675-.694l-6.539-6.539c-.562-.537-1.447-.537-2.01 0l-10.857 10.856c-.519.522-1.225.815-1.961.813z" class="C"/><g fill="#e6e6e6"><use xlink:href="#C"/><use xlink:href="#C" x="158" y="-103"/><path d="M300.3 239.032a38.28 38.28 0 0 0-18.69 4.9 35.52 35.52 0 0 1 6.8 69.48c1.49.494 3.009.891 4.55 1.19 2.418.476 4.876.713 7.34.71 21.064 0 38.14-17.076 38.14-38.14s-17.076-38.14-38.14-38.14z"/></g><path d="M285.83 241.892c-2.417-.484-4.876-.725-7.34-.72-20.368-.021-37.167 15.951-38.173 36.294s14.135 37.895 34.406 39.883 38.534-12.286 41.5-32.437-10.409-39.083-30.393-43.02zm2.58 71.52c-13.339 3.88-27.716-.374-36.795-10.888s-11.195-25.357-5.414-37.988 18.397-20.733 32.289-20.733c1.05 0 2.09.05 3.12.13a35.52 35.52 0 0 1 6.8 69.48z" class="B"/><path d="M300.696 272.598c-2.625-11.505-14.07-18.711-25.579-16.105a22.77 22.77 0 0 0-1.592.426l5.097 22.396 22.396-5.087a37.97 37.97 0 0 0-.322-1.63zm-2.169 5.561l-22.406 5.087-5.087-22.396c-10.875 3.365-17.207 14.66-14.404 25.693s13.759 17.935 24.921 15.701 18.616-12.823 16.956-24.085z" class="C"/><path d="M692.236 457.451c-21.063 0-38.138-17.075-38.138-38.138s17.075-38.138 38.138-38.138 38.138 17.075 38.138 38.138c-.024 21.053-17.085 38.114-38.138 38.138zm0-73.646a35.51 35.51 0 0 0-25.108 60.615 35.51 35.51 0 0 0 60.615-25.108c-.022-19.601-15.907-35.485-35.508-35.508z" class="B"/><path d="M708.693 434.594a7.06 7.06 0 0 1-7.063-7.053 7.06 7.06 0 0 1 7.053-7.063 7.06 7.06 0 0 1 7.063 7.053c.001 3.897-3.156 7.058-7.053 7.063zm-16.456 0c-3.893-.004-7.049-3.16-7.053-7.053v-16.456c.005-3.892 3.161-7.045 7.053-7.045s7.049 3.153 7.053 7.045v16.456c-.005 3.894-3.16 7.049-7.053 7.053zm-16.451 0a7.07 7.07 0 0 1-7.058-7.058v-6.575a7.06 7.06 0 0 1 7.058-7.058 7.06 7.06 0 0 1 7.058 7.058v6.575a7.07 7.07 0 0 1-7.058 7.058z" class="C"/><path d="M208.63 590.417l11.625-1.319.444-45.465-17.157 1.947 5.088 44.837z" class="E"/><path d="M243.898 597.348l-36.534 4.146h0l-1.602-14.115h0l22.419-2.544c3.744-.425 7.503.655 10.45 3.002s4.842 5.768 5.267 9.512h0 0z" class="D"/><path d="M89.081 589.691l11.699-.001 5.565-45.125-17.266.001.002 45.125z" class="E"/><path d="M123.343 600.553l-36.768.002h0l-.001-14.206h0l22.562-.001c3.768 0 7.381 1.496 10.045 4.16s4.161 6.277 4.161 10.045h0 0zm49.676-212.658l6.68 21.728 36.262 78.47 9.543 74.433-21.948.954-13.36-68.707-45.805-49.622-40.079 129.78-18.131-1.909s15.268-167.95 36.262-185.127c0 0 34.353-16.222 50.576 0z" class="D"/><circle cx="143.388" cy="270.705" r="23.438" class="E"/><path d="M175.404 392.189s2.863-97.335-37.216-90.655-23.379 100.675-23.379 100.675 8.588 17.177 29.582-1.909 31.014-8.111 31.014-8.111z" class="C"/><path d="M258.378 311.172c-1.523 2.397-4.03 3.996-6.845 4.367s-5.651-.524-7.743-2.444l-30.021 16.174 1.572-17.651 28.267-12.653a9.65 9.65 0 0 1 14.77 12.207z" class="E"/><path d="M143.164 313.418l48.731 8.237 43.67-20.615 6.63 14.177-47.806 30.45s-50.612 3.437-62.314-9.911c-4.388-5.005-4.89-9.561-3.803-13.3a13.15 13.15 0 0 1 14.891-9.038z" class="C"/><path d="M140.6 295.331c.227-.203.345-.502.318-.806s-.195-.577-.454-.737a13.63 13.63 0 0 1 1.313-23.892c6.891-3.285 16.228-.729 21.322-7.043a11.84 11.84 0 0 0 2.197-9.616c-1.099-5.963-5.582-10.391-10.602-13.426a38.58 38.58 0 0 0-58.295 37.345c.648 5.739 2.419 12.174-.994 16.834-3.003 4.101-8.672 4.87-13.652 5.889-10.681 2.186-20.986 7.227-28.234 15.371s-11.115 19.57-8.93 30.251 10.953 20.068 21.729 21.724c8.771 1.348 17.828-2.377 24.269-8.482s10.513-14.348 13.081-22.842c3.048-10.082 4.25-20.946 9.753-29.927 5.385-8.788 16.99-15.088 26.085-10.511.357.186.791.134 1.094-.131z" class="D"/><g class="F"><path d="M819.808 468.816a9.69 9.69 0 0 0 3.465-14.45l22.582-124.975-21.073-.278L809.1 452.697c-3.762 3.197-4.537 8.703-1.806 12.815s8.107 5.531 12.513 3.303zm-65.402-5.925l-8 38 1 85h15l7-83 11-35-26-5z"/><path d="M803.98 465.742l-8 38 1 85h15l7-83 11-35-26-5z"/></g><g class="D"><use xlink:href="#D"/><use xlink:href="#D" x="49.943" y="1.607"/></g><circle cx="790.906" cy="251.973" r="24.561" class="F"/><g class="B"><path d="M845.184 312.722c-7.473-11.725-30.935-39.534-65.846-23.572-5.634 2.605-9.051 8.441-8.568 14.629 1.69 22.299 3.821 79.113-14.364 113.111 0 0 53 16 82 1 0 0-10-67 0-80 3.335-4.154 6.035-8.78 8.013-13.726a12.89 12.89 0 0 0-1.235-11.442z"/><path d="M835.406 311.891l9.814 4.089a3.72 3.72 0 0 1 2.285 3.278l.901 21.633-22-2z"/></g><path d="M760.406 414.891s-22 41-18 79l31 5 22-53-5 54 32 1s21-78 14-85z" class="D"/><path d="M729.16 418.55a9.69 9.69 0 0 0 7.708-12.704l44.629-84.13-19.984-6.693-37.633 84.91c-4.558 1.897-6.976 6.904-5.629 11.654s6.034 7.741 10.909 6.963z" class="F"/><path d="M787.59 298.941l-8.266-3.698s-7.009-4.345-13.221 5.216-12.923 30.512-12.923 30.512l26.971 7.589z" class="B"/><path d="M794.84 263.798c.882-3.062.627-7.205-2.341-8.363-1.547-.603-3.272-.127-4.924.042a13.14 13.14 0 0 1-9.081-2.499c-3.071-2.283-4.967-5.772-6.768-9.147l-2.724-5.106a22.18 22.18 0 0 1-1.545-3.327c-1.516-4.507.13-9.726 3.499-13.082 3.521-3.275 8.154-5.092 12.963-5.082 4.771.034 9.485 1.044 13.851 2.967a61.26 61.26 0 0 1 20.653 13.875c3.832 3.92 7.32 9.027 6.52 14.45-.623 4.221-3.7 7.602-6.635 10.7l-10.645 11.237c-1.885 1.99-3.9 4.061-6.532 4.826s-6.023-.359-6.741-3.004c0 0-.432-5.424.45-8.486z" class="D"/><path d="M942 601.742H1a1 1 0 1 1 0-2h941a1 1 0 1 1 0 2z" class="B"/><path d="M634.035 295.313h-28a3 3 0 1 1 0-6h28a3 3 0 1 1 0 6zm0-13h-28a3 3 0 1 1 0-6h28a3 3 0 1 1 0 6zm0-13h-28a3 3 0 1 1 0-6h28a3 3 0 1 1 0 6z" class="C"/><defs ><path id="B" d="M300.299 215.308a38.14 38.14 0 0 1-26.968-65.105 38.14 38.14 0 0 1 65.106 26.968c-.024 21.053-17.085 38.114-38.138 38.138zm0-73.646a35.51 35.51 0 0 0-25.108 60.615 35.51 35.51 0 0 0 60.615-25.108c-.022-19.601-15.907-35.486-35.508-35.508z"/><path id="C" d="M462.367 315.308a38.14 38.14 0 0 1-26.968-65.105 38.14 38.14 0 0 1 65.106 26.968c-.024 21.053-17.085 38.114-38.138 38.138z"/><path id="D" d="M742.167 584.925l23.644-.059h0l.037 14.887h0l-38.531.097h0 0c-.01-3.948 1.549-7.739 4.334-10.538s6.567-4.377 10.516-4.387z"/></defs></svg>