<svg xmlns="http://www.w3.org/2000/svg" xmlns:xlink="http://www.w3.org/1999/xlink" width="797.5" height="834.5" xmlns:v="https://vecta.io/nano"><g fill="#3f3d56"><ellipse cx="308.5" cy="780" rx="308.5" ry="54.5"/><circle cx="496" cy="301.5" r="301.5"/></g><circle cx="496" cy="301.5" r="248.898" opacity=".05"/><circle cx="496" cy="301.5" r="203.994" opacity=".05"/><circle cx="496" cy="301.5" r="146.26" opacity=".05"/><use xlink:href="#B" fill="#d0cde1"/><use xlink:href="#B" opacity=".1"/><g fill="#2f2e41"><path d="M213.851 482.997s-1.756 16.681-2.634 17.558.878 2.634 0 5.268-1.756 6.145 0 7.023-9.657 78.135-9.657 78.135-28.094 36.873-16.681 94.816l3.512 58.821s27.216 1.756 27.216-7.901c0 0-1.756-11.413-1.756-16.681s4.39-5.268 1.756-7.901-2.634-4.39-2.634-4.39 4.39-3.512 3.512-4.39 7.901-63.211 7.901-63.211 9.657-9.657 9.657-14.925v-5.268s4.39-11.413 4.39-12.291 23.704-54.431 23.704-54.431l9.657 38.629 10.535 55.309s5.268 50.042 15.803 69.356l18.436 61.455c0-1.756 30.727-6.145 29.849-14.047s-18.436-118.52-18.436-118.52l4.39-164.172z"/><use xlink:href="#C"/><use xlink:href="#C" x="130.811" y="34.239"/></g><g fill="#ffb8b8"><circle cx="295.905" cy="215.433" r="36.905"/><path d="M272.18 227.558s-26.36 48.503-28.469 48.503 47.449 15.816 47.449 15.816 13.707-46.394 15.816-50.612z"/></g><path d="M312.617 280.635s-52.675-28.971-57.943-28.094-61.455 50.042-60.577 70.234 7.901 53.553 7.901 53.553 2.634 93.06 7.901 93.938-.878 16.681.878 16.681 122.909 0 123.787-2.634-21.948-203.678-21.948-203.678z" fill="#d0cde1"/><path d="M342.028 489.142s16.681 50.92 2.634 49.164-20.192-43.896-20.192-43.896z" fill="#ffb8b8"/><path d="M297.254 277.563s-32.483 7.023-27.216 50.92 14.925 87.792 14.925 87.792l32.483 71.112 3.512 13.169 23.704-6.145-17.558-101.839s-6.145-108.863-14.047-112.374a34 34 0 0 0-15.803-2.634z" fill="#d0cde1"/><path opacity=".1" d="M277.5 414.958l40.385 71.989-34.025-75.857-6.36 3.868z"/><path d="M332.646 204.566l.122-2.82 5.61 1.396a6.27 6.27 0 0 0-2.514-4.615l5.976-.334c-10.133-14.399-25.714-24.028-43.125-26.651-12.926-1.873-27.318.838-36.182 10.43-4.299 4.653-7.001 10.57-8.922 16.607-3.539 11.118-4.26 24.372 3.12 33.409 7.501 9.185 20.602 10.984 32.406 12.121 4.153.4 8.506.772 12.355-.839a29.72 29.72 0 0 0-1.654-13.037c-.632-1.29-.934-2.717-.879-4.152.525-3.512 5.209-4.396 8.728-3.922s7.75 1.2 10.062-1.494c1.593-1.856 1.499-4.559 1.71-6.996.574-6.634 13.128-7.712 13.188-9.103z" fill="#2f2e41"/><g fill="#6c63ff"><circle cx="559" cy="744.5" r="43"/><circle cx="54" cy="729.5" r="43"/><circle cx="54" cy="672.5" r="31"/><circle cx="54" cy="624.5" r="22"/></g><defs ><path id="B" d="M197.17 328.482s-23.704 66.722-13.169 90.426 27.216 46.53 27.216 46.53-6.145-132.566-14.047-136.956z"/><path id="C" d="M190.147 740.228s-23.704 46.53-7.901 48.286 21.948 1.756 28.971-5.268c3.84-3.84 11.615-8.991 17.876-12.873a23.12 23.12 0 0 0 10.969-21.982c-.463-4.295-2.068-7.834-6.019-8.164-10.535-.878-22.826-10.535-22.826-10.535z"/></defs></svg>