<svg xmlns="http://www.w3.org/2000/svg" width="772.721" height="669.07" xmlns:v="https://vecta.io/nano"><path d="M188.299 108.097h0c-21.465 0-37.092 16.041-42.359 38.944l-6.531 34.358h4.646l10.067-28.127-2.119 28.127h5.217l3.872-14.49-.815 14.49h62.768V146.34c0-21.121-15.557-38.243-34.747-38.243zm-28.368 184.431s-31.751 44.142-30.202 61.953 21.684 308.217 21.684 308.217l47.239 2.323-13.939-209.092 11.616-56.532 28.653 263.301 58.081 1.549-51.886-341.516-10.067-30.202z" fill="#2f2e41"/><path d="M170.773 157.78s10.067 18.586-3.098 30.977-19.36 45.69-19.36 45.69l74.344-5.421-6.195-41.818s-16.263-10.067-12.391-27.879z" fill="#ffb8b8"/><path d="M158.382 207.342s4.646 13.939 24.781 12.391c12.259-1.023 24.022-5.301 34.074-12.391v90.606l-61.953-2.323v-54.983z" fill="#6c63ff"/><path d="M162.254 297.949l4.646-15.488s-1.549-36.397-7.744-51.111c0 0 11.838-38.786 13.663-49.982l-5.919 4.292-35.623 17.037 12.391 64.276 8.519 13.939-8.826 36.623zm30.202-3.098l17.812-96.802-4.888-24.007 14.181 13.939 27.879 8.519-13.165 72.795-7.744 15.488 3.83 34.751z" fill="#3f3d56"/><path d="M263.703 359.902s7.744 33.3-7.744 37.172-10.067-37.172-10.067-37.172zm-136.598-34.563s29.82 16.721 22.242 30.773-34.247-17.615-34.247-17.615z" fill="#ffb8b8"/><path d="M235.824 198.049l11.616-1.549s6.97 9.293 7.744 16.263l13.165 124.681c.891 2.569.012 5.091-.774 26.33l-2.323 9.293s-4.646-17.812-22.458-8.519l-2.323-10.842s-4.646-41.044-4.646-60.404-1.549-40.27-1.549-40.27z" fill="#3f3d56"/><g fill="#2f2e41"><ellipse cx="179.722" cy="663.864" rx="11.012" ry="4.129"/><ellipse cx="254.052" cy="663.864" rx="11.012" ry="4.129"/></g><path d="M139.796 201.921l-8.519.774-19.36 75.118s-2.352 97.538 17.037 78.99c0 0-6.97-20.135 10.842-27.104v-41.044l6.195-35.623z" fill="#3f3d56"/><g fill="#ffb8b8"><ellipse cx="214.14" cy="150.423" rx="1.162" ry="3.872"/><ellipse cx="161.48" cy="150.423" rx="1.162" ry="3.872"/><circle cx="187.81" cy="148.487" r="25.556"/></g><path fill="#2f2e41" d="M176.581 134.935l-.653 6.195h17.69l2.324-4.647-.49 4.647h21.399l-14.714-23.232-32.525.774-7.745 22.458h11.617l3.097-6.195z"/><path d="M565.721 425.911c-114.141 0-207-92.86-207-207s92.859-207 207-207 207 92.86 207 207-92.859 207-207 207zm0-412c-113.037 0-205 91.962-205 205s91.963 205 205 205 205-91.963 205-205-91.963-205-205-205zm0 354c-82.159 0-149-66.841-149-149s66.841-149 149-149 149 66.841 149 149-66.841 149-149 149zm0-296c-81.056 0-147 65.944-147 147s65.944 147 147 147 147-65.944 147-147-65.944-147-147-147zm0 237.341c-49.894 0-90.341-40.447-90.341-90.342s40.447-90.341 90.341-90.341 90.342 40.447 90.342 90.341c-.057 49.871-40.471 90.285-90.342 90.342zm0-178.683c-35.731 0-67.943 21.524-81.617 54.535s-6.115 71.008 19.15 96.274 63.263 32.823 96.274 19.15 54.535-45.886 54.534-81.617c-.055-48.767-39.575-88.286-88.342-88.341z" fill="#e6e6e6"/><g fill="#6c63ff"><circle cx="565.721" cy="218.911" r="45.873"/><circle cx="598.539" cy="14.545" r="14.545"/><circle cx="416.164" cy="360.274" r="14.545"/></g><g fill="#e6e6e6"><circle cx="418.164" cy="235.274" r="14.545"/><circle cx="690.164" cy="137.274" r="14.545"/><circle cx="747.164" cy="318.274" r="14.545"/></g><g fill="#6c63ff"><circle cx="704.831" cy="253.982" r="14.545"/><circle cx="385.955" cy="115.243" r="14.545"/><circle cx="619.797" cy="418.455" r="14.545"/></g><g fill="#e6e6e6"><path d="M9.352 647.416c14.42 19.311 44.352 21.344 44.352 21.344s6.554-29.277-7.866-48.588-44.352-21.344-44.352-21.344-6.554 29.277 7.866 48.588z"/><path d="M82.809 654.675c-9.515 12.743-29.267 14.084-29.267 14.084s-4.324-19.319 5.191-32.062 29.267-14.084 29.267-14.084 4.324 19.319-5.191 32.062z"/></g><path fill="#3f3d56" d="M8.176 666.829h664v2.241h-664z"/></svg>