<svg xmlns="http://www.w3.org/2000/svg" width="955.953" height="639.224" xmlns:v="https://vecta.io/nano"><path fill="#e6e6e6" d="M.3.399h703.576V451H.3z"/><path fill="#fff" d="M20.419 56.915h663.339v171.773H20.419z"/><path fill="#e6e6e6" d="M185.418 81.727h140.281v8.053H185.418z"/><path fill="#6c63ff" d="M185.418 111.101h216.625v8.053H185.418z"/><path d="M185.418 138.776h176.544v8.053H185.418zm0 27.57h103.064v8.053H185.418zm0 27.569h155.55v8.053h-155.55zM121.48 78.864h17.177v17.177H121.48z" fill="#e6e6e6"/><path fill="#6c63ff" d="M121.48 106.539h17.177v17.177H121.48z"/><path d="M121.48 134.213h17.177v17.177H121.48zm0 27.675h17.177v17.177H121.48zm0 27.674h17.177v17.177H121.48zm412.256-71.572h57.258v57.258h-57.258z" fill="#e6e6e6"/><path fill="#fff" d="M20.419 252.546h663.339v171.773H20.419z"/><path fill="#e6e6e6" d="M151.064 267.812h17.177v17.177h-17.177z"/><path fill="#6c63ff" d="M121.48 267.812h17.177v17.177H121.48z"/><path d="M412.724 305.375c-10.62-17.98-29.228-29.768-50.022-31.689s-41.246 6.259-54.981 21.989l-4.186-3.658c14.906-17.078 37.106-25.96 59.678-23.875s42.77 14.882 54.295 34.401z" fill="#e6e6e6"/><g fill="#6c63ff"><path d="M415.344 377.794l-4.613-3.102a65.08 65.08 0 0 0 1.994-69.316l4.784-2.832a70.64 70.64 0 0 1-2.164 75.25zm-111.23 7.745c-23.778-26.556-24.027-66.673-.579-93.521l4.186 3.658c-21.6 24.734-21.371 61.69.534 86.154z"/><path d="M356.714 409.052a70.71 70.71 0 0 1-52.6-23.514l4.141-3.709c13.394 14.964 32.95 22.902 52.984 21.506s38.301-11.968 49.491-28.644l4.613 3.102c-13.107 19.545-35.096 31.269-58.63 31.259z"/></g><path d="M533.736 305.032h57.258v57.258h-57.258zm-414.641 37.217h57.258v57.258h-57.258z" fill="#e6e6e6"/><path fill="#6c63ff" d="M0 0h703.576v29.89H0z"/><g fill="#fff"><circle cx="22.212" cy="15.282" r="5.54"/><circle cx="43.241" cy="15.282" r="5.54"/><circle cx="64.269" cy="15.282" r="5.54"/></g><path fill="#ffb8b8" d="M817.168 623.704h14.243l6.777-54.94-21.023.001.003 54.939z"/><path d="M813.535 619.054l28.051-.001h.001a17.88 17.88 0 0 1 17.876 17.876v.581l-45.927.002z" fill="#2f2e41"/><path fill="#ffb8b8" d="M781.694 569.766l10.511 9.613 42.079-35.968-15.513-14.187-37.077 40.542z"/><g fill="#2f2e41"><path d="M782.152 563.883l20.7 18.93.001.001a17.88 17.88 0 0 1 1.127 25.255l-.392.429-33.891-30.995zm57.403-133.111l-4.037 80.739 10.093 87.805-30.278 4.037-19.175-111.017-6.056-75.694 49.453 14.13z"/><path d="M886.99 401.504s12.111 79.73-13.12 105.971-59.545 72.666-59.545 72.666l-24.222-30.277 61.564-65.601-12.111-44.407-49.453-23.213 8.074-55.508 72.666-1.009z"/></g><circle cx="831.415" cy="192.095" r="24.717" fill="#ffb8b8"/><path fill="#ccc" d="M851.917 227.224l3.786 5.736 10.093 28.259-8.074 110.007-47.435 1.01-6.055-126.156 12.685-15.856 35-3z"/><g fill="#2f2e41"><path d="M785.056 249.108l-8.074-1.009s-2.018 1.009-3.028 8.074-13.12 69.638-13.12 69.638l16.148 76.703 18.166-24.222-11.102-42.388 11.102-42.388zm102.943-1.009h6.055l15.139 81.748-14.129 63.583-14.13-23.213 4.037-25.231-2.018-22.203-7.065-13.121 12.111-61.563z"/><path d="M846.021 192.095l-4.494-1.124s-3.371-19.1-11.235-16.853-28.088 4.494-28.088-4.494 19.1-16.853 30.335-15.729 25.584 4.851 29.212 21.347c5.815 26.444-11.997 33.123-11.997 33.123l.296-.963c1.679-5.453.117-11.387-4.029-15.308zm-68.03 56.004l32.296-13.12 7.569-5.551 22.708 100.42 15.139-45.416-4.542-58.032 41.884 21.699-14.129 68.629-2.019 26.24 6.055 21.194s21.194 15.139 14.129 31.287-15.139 17.157-15.139 17.157-34.314-32.296-36.333-40.37-5.046-22.203-5.046-22.203-17.157 64.592-37.342 63.582-20.185-22.203-20.185-22.203l5.046-22.203 8.074-23.213-4.037-38.351z"/></g><path d="M954.953 639.224h-268a1 1 0 1 1 0-2h268a1 1 0 1 1 0 2z" fill="#ccc"/></svg>