<svg xmlns="http://www.w3.org/2000/svg" width="571.757" height="700.463" xmlns:v="https://vecta.io/nano"><path fill="#ffb8b8" d="M237.145 687.3h12.26l5.834-47.288h-18.094V687.3z"/><path d="M234.018 683.297h24.144c8.494.009 15.377 6.893 15.387 15.387v.5h-39.531z" fill="#2f2e41"/><path fill="#ffb8b8" d="M79.05 664.069l10.509 6.314 29.355-37.529-15.51-9.319-24.354 40.534z"/><path d="M70.249 672.645l8.182-13.618 20.696 12.434c7.276 4.383 9.631 13.828 5.265 21.114l-.258.429zm163.561 4.745c-2.473-2.518-8.617-43.875-17.707-106.682l-8.618-58.343c-21.094 46.37-55.196 96.531-96.175 141.435l-.236.259-.324-.133c-13.11-5.398-15.55-6.649-21.444-9.672l-6.589-3.343-.153-.118c-1.266-1.446 10.285-20.62 50.672-85.813l47.835-78.153.112-.19.216-.045c29.128-6.075 57.213 1.056 79.083 20.077l.177.155-.006.235c-.59 23.908-.094 61.448.343 94.57.854 64.667.798 83.559-1.216 84.158l-.101.019-7.662.708a164.63 164.63 0 0 1-17.849 1.027l-.211.001zm-63.501-380.856c-4.127-17.04-7.624-36.26.16-51.955 5.4-10.89 25.379-14.557 36.831-10.634s19.732 14.567 23.374 26.172 3.218 24.11 1.631 36.174c-21.062-.405-42.125-.809-61.996.243z" fill="#2f2e41"/><circle cx="205.853" cy="271.968" r="24.561" fill="#ffb8b8"/><path d="M175.827 266.909a30.85 30.85 0 0 1 46.902-26.923 30.85 30.85 0 0 1 14.76 27.736c-21.022.045-42.045.089-61.662-.813z" fill="#2f2e41"/><path d="M272.331 507.209c-4.529-15.451-6.785-26.265-9.39-38.754-3.572-17.12-7.62-36.524-18.771-74.303l-.028-.093.009-.096c3.157-32.765-10.606-67.533-35.919-90.738-3.525-2.98-8.758-2.715-11.964.606-14.241 15.992-23.191 30.972-27.361 45.795l-.09.321c5.945 19.13 12.599 38.356 19.036 56.956l.092.266-.18.217c-24.1 29.017-37.429 67.805-36.626 106.521 23.067-8.062 47.342-12.126 71.777-12.017 16.614.004 33.18 1.787 49.414 5.32z" fill="#3f3d56"/><path opacity=".1" d="M186.941 382.463l36.276 78.977 20.724-20.977-57-58z"/><path d="M384.631 80.507C384.976 36.325 356.155.282 320.257.002s-65.278 35.309-65.623 79.49c-.313 40.056 23.348 73.421 54.52 79.512l-2.152 12.899 23.823.186-1.95-12.931c31.264-5.604 55.443-38.596 55.756-78.651z" fill="#6c63ff"/><path d="M276.47 100.663l-9-.07c-2.85-16.892-2.715-34.153.398-50.998l9 .07q-6.049 26.404-.398 50.998z" fill="#fff"/><path fill="#3f3d56" d="M305.516 158.891l26.999.211-.047 6-26.999-.211z"/><path d="M509.707 104.902c3.498-44.044-22.677-82.053-58.462-84.895s-67.632 30.559-71.13 74.603c-3.171 39.931 18.047 74.9 48.705 83.201l-3.067 12.713 23.748 1.886-1.022-13.038c31.584-3.358 58.056-34.539 61.228-74.471z" fill="#ff6584"/><path d="M400.383 117.285l-8.972-.713c-1.637-17.052-.27-34.26 4.038-50.84l8.972.713q-7.918 25.905-4.038 50.84z" fill="#fff"/><g fill="#3f3d56"><path d="M425.199 177.439l26.915 2.138-.475 5.981-26.915-2.138z"/><path d="M241.214 500.485l196.497-320.732 2.558 1.567-196.497 320.732z"/></g><path d="M560.501 148.171c20.788-38.987 11.961-84.284-19.715-101.175s-74.208 1.022-94.996 40.009c-18.847 35.346-13.351 75.878 11.445 95.727l-7.887 10.432 21.022 11.209 4.267-12.362c30.299 9.529 67.018-8.494 85.865-43.84z" fill="#6c63ff"/><path d="M455.321 115.887l-7.942-4.235c5.306-16.288 13.428-31.52 23.996-45.002l7.942 4.235q-17.6 20.591-23.996 45.002z" fill="#fff"/><g fill="#3f3d56"><path d="M454.063 180.945l23.825 12.704-2.823 5.294-23.825-12.704z"/><path d="M241.479 494.297l221.286-304.158 2.426 1.765-221.286 304.158z"/><path d="M254.891 532.124l65.772-370.342 2.954.525-65.772 370.342z"/></g><path d="M267.817 466.411c-2.969-.207-5.694-1.718-7.441-4.126s-2.339-5.468-1.614-8.354l-29.891-19.584 17.047-7.365 25.771 19.726a10.11 10.11 0 0 1-3.873 19.703z" fill="#ffb8b8"/><path d="M238.753 451.955c-17.875-20.564-36.359-41.828-53.186-63.206l-.108-.144v-.174c.077-17.457.156-35.504 2.224-55.695-3.313-3.5-4.87-8.309-4.237-13.087a17.72 17.72 0 0 1 7.782-13.234c8.422-5.32 21.042-2.44 27.007 6.166 5.759 8.308 4.917 20.21.523 26.205l-4.865 38.152-.43-.033.095.048.034-.028.063.077.149.076a.91.91 0 0 0-.03.069l48.405 58.265.361.423-.459.314-22.649 15.887-.377.267zM382 700.463H1a1 1 0 1 1 0-2h381a1 1 0 1 1 0 2z" fill="#3f3d56"/><path d="M492.715 480.274h0 0 0zm39.292 11.417l-.605 1.907-37.678-11.955c3.341 4.413 14.533 18.194 26.162 21.231 13.893 3.629 21.048-1.443 23.142-9.459s-1.667-15.938-15.56-19.567c-11.777-3.076-28.553 3.678-33.393 5.808zm-181.175 87.04v-.001h0v.001zm3.068 40.801l-1.998.101-1.999-39.479c-2.963 4.674-11.951 19.985-10.723 31.941 1.467 14.284 8.724 19.209 16.965 18.363s14.345-7.144 12.878-21.428c-1.244-12.108-13.446-25.456-17.136-29.243zM63.981 131.667h0 0 0zm-33.449-23.565l1.192-1.607 31.749 23.55c-1.725-5.259-7.833-21.929-17.844-28.58-11.96-7.946-20.375-5.474-24.959 1.426s-3.603 15.615 8.358 23.562c10.138 6.736 28.199 5.799 33.468 5.358z" fill="#f2f2f2"/></svg>