<svg xmlns="http://www.w3.org/2000/svg" width="648.601" height="736.677" xmlns:v="https://vecta.io/nano"><g fill="#e6e6e6"><ellipse cx="610.961" cy="812.823" rx="5.513" ry="98.066" transform="matrix(.001605 -.999999 .999999 .001605 -478.54174 1340.81747)"/><path d="M322.876 533.883c-119.595 0-222.536-84.481-245.868-201.778S116.451 97.364 226.942 51.596s237.926-7.111 304.37 92.329 53.391 231.967-31.176 316.534c-46.909 47.166-110.739 73.605-177.26 73.424zm0-499.369c-137.125 0-248.684 111.559-248.684 248.684s111.559 248.685 248.684 248.685S571.56 420.324 571.56 283.199 460.001 34.515 322.876 34.515z"/></g><g fill="#3f3d56"><path d="M163.923 291.289h19.027v65.862h-19.027z"/><path d="M195.515 344.761l-46.276-55.053-92.89.849L0 345.442l1.139.732H.732v114.16H195.39v-114.16l.125-1.413z"/></g><path fill="#6c63ff" d="M149.287 289.825l-57.812 67.778v102.731H195.39V344.71l-46.103-54.885z"/><path d="M133.187 403.523h21.222v18.758h-21.222zm0-32.468h21.222v18.46h-21.222z" fill="#3f3d56"/><path d="M133.187 403.523h21.222v18.758h-21.222zm0-32.468h21.222v18.46h-21.222z" fill="#fff"/><path d="M38.875 398.545h21.222v18.758H38.875zm0-32.468h21.222v18.46H38.875z" fill="#3f3d56"/><path d="M38.875 398.545h21.222v18.758H38.875zm0-32.468h21.222v18.46H38.875z" fill="#fff"/><g fill="#3f3d56"><path d="M465.651 1.581h19.027v65.862h-19.027z"/><path d="M453.211 56.466v180.158h194.658V56.466h-.407l1.139-.732L592.252.849 499.362 0l-46.276 55.053.125 1.413z"/></g><path fill="#6c63ff" d="M453.211 55.002v181.622h103.915V67.896L499.314.117l-46.103 54.885z"/><path d="M494.191 113.815h21.222v18.758h-21.222zm0-32.468h21.222v18.46h-21.222z" fill="#3f3d56"/><path d="M494.191 113.815h21.222v18.758h-21.222zm0-32.468h21.222v18.46h-21.222z" fill="#fff"/><path d="M588.504 108.837h21.222v18.758h-21.222zm0-32.467h21.222v18.46h-21.222z" fill="#3f3d56"/><path d="M588.504 108.837h21.222v18.758h-21.222zm0-32.467h21.222v18.46h-21.222zm-94.313 103.442h21.222v18.758h-21.222zm0-32.468h21.222v18.46h-21.222zm94.313 27.491h21.222v18.758h-21.222zm0-32.468h21.222v18.46h-21.222z" fill="#fff"/><g fill="#a0616a"><circle cx="334.42" cy="179.978" r="30.588"/><path d="M303.005 235.367l52.082-.827c-4.48-12.344-6.421-23.902-3.307-33.895l-39.682-4.134q8.042 19.428-9.094 38.855zM257.536 440.39l8.649 23.063a13.96 13.96 0 0 1-1.137 12.148c-2.222 3.661-5.999 6.101-10.25 6.619h0a13.97 13.97 0 0 1-11.148-3.587c-3.011-2.771-4.655-6.724-4.498-10.813l1.023-26.604 7.44-136.406 30.588 9.094z"/></g><g fill="#2f2e41"><path d="M289.778 696.669l24.801-2.48L336.9 477.592l31.415 220.731 23.148-.827 5.787-242.225H286.471l3.307 241.398zm81.017-528.265s-8.267 18.188-14.054 19.014-15.707 9.92-14.054 14.054.827 16.534-15.707 14.881-15.707-3.307-15.707-3.307-26.455-50.429.827-63.656 51.256-3.307 58.696 19.014z"/><path d="M392.727 685.664l-.994 20.867s15.145 23.621-3.735 23.621c-.189 0 .186.001 0 0-13.653-.043-25.993 6.101-24.379-7.456l2.279-19.145 3.975-20.867zm-102.742 0l.994 20.867s-15.145 23.621 3.735 23.621c.189 0-.186.001 0 0 13.653-.043 25.993 6.101 24.379-7.456l-2.279-19.145-3.975-20.867z"/></g><g fill="#e6e6e6"><path d="M277.377 465.192l123.179-5.787c-22.973-73.72-23.143-134.041 5.787-189.586a29.74 29.74 0 0 0-17.974-27.314L352.607 227.1l-45.469 2.48-30.002 16.501c-11.988 6.593-19.156 19.456-18.457 33.12 26.267 62.703 27.767 124.533 18.698 185.99z"/><path d="M299.698 321.345l-68.617-11.574 11.305-28.067c8.044-19.971 24.39-35.446 44.772-42.384l6.753-2.299z"/></g><path d="M514.935 258.244l21.122-8.801a15.92 15.92 0 0 0 7.345-23.183h0a15.92 15.92 0 0 0-25.546-1.881l-15.673 18.257-61.435 44.085-41.763-17.336-4.975 34.639 52.176 13.589z" fill="#a0616a"/><path d="M403.601 317.442l34-32-9-11c-8.044-19.971-26.538-28.184-46.919-35.122l-6.753-2.299-5.328 54.421z" fill="#e6e6e6"/></svg>