<svg xmlns="http://www.w3.org/2000/svg" viewBox="0 0 750 750" fill="#fff" xmlns:v="https://vecta.io/nano"><path d="M723.8 314.4c-3.4-19.5-12.6-34.7-27.4-45-18.4-12.9-41.8-15.3-63.6-15-34.8.5-77.5.6-108.4-17.7-22.7-13.4-42.6-32-63.3-48.1-78.5-61-128.6-34.9-191.8 24-31.7 29.5-74.3 43.6-117.2 43.8-17.9.1-35.7-3.3-53.5-1.8-15.9 1.3-31.9 5.6-45.1 14.8-14.8 10.3-24 25.5-27.4 45-7.1 40.9 2.6 80.1 26.6 107.6s61.2 42.5 108.3 43.9c31.1 69.1 93.5 125.9 226.1 130.2 117 3.7 177.7-58.4 208.9-130.5 43.8-2.6 78.5-17.5 101.3-43.6 24-27.5 33.7-66.7 26.5-107.6zM384.2 520.9c-95.5 0-168.2-53.7-169.3-54.5l6.6-8.7c1.6 1.2 158.8 117 311.6 0l6.6 8.6c-53.5 41-107.4 54.6-155.5 54.6zm20.1-79.2c-114.4 0-214.2-44.9-215.6-45.5l4.5-9.9c2.1.9 208.7 93.7 364.5 8.9l5.2 9.6c-50.5 27.5-106.1 36.9-158.6 36.9zM571 336.8l-23.3-1.2-45.9-2c-25.9-.7-50.1-7.2-73.5-13.5l-22.9-6c-23.7-5.8-53.6-4.7-80 2.8-56.3 16.1-107.1 14.8-126.3 14.3-3.1-.1-6.4-.2-7.2-.1l-2.3-10.6c1.5-.4 3.4-.3 9.8-.2 18.7.5 68.3 1.7 123-13.9 28.1-8 60.1-9.1 85.5-2.9l23.2 6c23.8 6.4 46.4 12.5 71 13.1 15.4.4 31.1 1.2 46.2 2l23.2 1.2-.5 11zm116.4 76.6c-19.3 22.2-48.7 35.4-86 38.7 20.4-53.9 25.6-111.3 26.5-149.9-52.6 0-118.2-4.5-151.6-43.3-22-25.6-41.1-38.5-65.9-44.8-19.9-5-49.1-10.5-72 .6-13 6.2-24.6 16.1-35.9 25.6-6.6 5.6-13.5 11.3-20.5 16.3-37.7 26.7-90.6 54.7-146.4 54.7a104.28 104.28 0 0 1-7.9-.3c4.1 43.5 9.6 94.7 27.7 141.6-40.5-2.3-72.4-15.6-92.9-39.2-21.4-24.6-30-59.8-23.5-96.8 2.8-16 10.2-28.2 21.9-36.5 20.9-14.6 50.4-13.5 62.2-12.3 1.3 9.9 2.4 20.7 3.5 32.2 56.3 3.3 110.7-25.3 149.1-52.4 6.7-4.7 13-10.1 19.8-15.8 11.8-9.9 24-20.2 38.2-27 26.1-12.6 57.8-6.8 79.4-1.3 33.7 8.5 55 29.2 71.5 48.3 30.4 35.3 93 39.5 143.5 39.5 0-9.6-.2-17.6-.5-23.5 12.2-1.2 40.9-2.1 61.4 12.3 11.8 8.2 19.2 20.5 22 36.5 6.4 37-2.2 72.3-23.6 96.8z"/></svg>