<svg xmlns="http://www.w3.org/2000/svg" xmlns:xlink="http://www.w3.org/1999/xlink" width="925.497" height="645.184" xmlns:v="https://vecta.io/nano"><g fill="#f2f2f2"><circle cx="233.088" cy="328.457" r="18.409"/><circle cx="170.088" cy="540.457" r="11.409"/><path d="M379.997 21.5h140v2h-140z"/><path d="M417.997 3.5h2V22h-2zm61 0h2V22h-2zm127 502h140v2h-140z"/><path d="M643.997 487.5h2V506h-2zm61 0h2V506h-2zm-92-287h140v2h-140z"/><path d="M650.997 182.5h2V201h-2zm61 0h2V201h-2zm-99-54h140v2h-140z"/><path d="M650.997 110.5h2V129h-2zm61 0h2V129h-2zm-406 28h140v2h-140z"/><path d="M343.997 120.5h2V139h-2zm61 0h2V139h-2zm-201-29h140v2h-140z"/><path d="M241.997 73.5h2V92h-2zm61 0h2V92h-2zm-162 203h140v2h-140z"/><path d="M178.997 258.5h2V277h-2zm61 0h2V277h-2zm-169 222h140v2h-140z"/><path d="M108.997 462.5h2V481h-2zm61 0h2V481h-2zm563-66h140v2h-140z"/><path d="M770.997 378.5h2V397h-2zm61 0h2V397h-2zm-140-110h140v2h-140z"/><path d="M791.997 270h2v18.5h-2zm-61 0h2v18.5h-2zm-717-151.5h140v2h-140z"/><path d="M113.997 120h2v18.5h-2zm-61 0h2v18.5h-2zm-30 260.5h140v2h-140z"/><path d="M122.997 382h2v18.5h-2zm-61 0h2v18.5h-2zm402-328.5h140v2h-140z"/><path d="M563.997 55h2v18.5h-2zm-61 0h2v18.5h-2zm-432 137.5h140v2h-140z"/><path d="M108.997 174.5h2V193h-2zm61 0h2V193h-2z"/></g><path d="M233.497 173v471h436V173zm218 34c-8.284 0-15-6.716-15-15s6.716-15 15-15 15 6.716 15 15-6.716 15-15 15zM37.255 603.797c6.914 25.558 30.596 41.387 30.596 41.387s12.472-25.609 5.558-51.167-30.596-41.387-30.596-41.387-12.472 25.609-5.558 51.167z" fill="#3f3d56"/><path d="M47.415 598.305c18.972 18.469 21.289 46.859 21.289 46.859s-28.442-1.553-47.415-20.022S0 578.283 0 578.283s28.442 1.553 47.415 20.022z" fill="#6c63ff"/><g fill="#3f3d56"><path d="M16.497 643h909v2h-909z"/><path d="M191.997 581.338a22.03 22.03 0 0 0-14.031-20.5c9.868-3.835 15.605-14.154 13.654-24.56s-11.036-17.946-21.623-17.946-19.672 7.541-21.623 17.946 3.786 20.725 13.654 24.56a21.99 21.99 0 0 0 0 41c-9.868 3.835-15.605 14.154-13.654 24.56s11.036 17.946 21.623 17.946 19.672-7.541 21.623-17.946-3.786-20.725-13.654-24.56a22.03 22.03 0 0 0 14.031-20.5zm-42-41c-.009-10.46 8.044-19.16 18.473-19.958s19.712 6.574 21.296 16.913-5.066 20.153-15.256 22.513c-2.976-.623-6.05-.623-9.026 0-9.057-2.106-15.472-10.169-15.487-19.467zm40 82c.009 10.46-8.044 19.16-18.473 19.958s-19.712-6.574-21.296-16.913 5.066-20.153 15.256-22.513c2.976.623 6.05.623 9.026 0 9.057 2.106 15.472 10.169 15.487 19.467zm-15.487-21.533c-2.976-.623-6.05-.623-9.026 0a19.98 19.98 0 0 1 0-38.935c2.976.623 6.05.623 9.026 0a19.98 19.98 0 0 1 0 38.935z"/></g><g fill="#f2f2f2"><use xlink:href="#B"/><use xlink:href="#B" y="72"/><use xlink:href="#B" y="144"/><use xlink:href="#B" y="216"/><use xlink:href="#B" y="288"/></g><g fill="#6c63ff"><path d="M470.997 271.5h-190a7 7 0 1 1 0-14h190a7 7 0 1 1 0 14zm-59 72h-131a7 7 0 1 1 0-14h131a7 7 0 1 1 0 14zm-72 72h-59a7 7 0 1 1 0-14h59a7 7 0 1 1 0 14zm149 72h-208a7 7 0 1 1 0-14h208a7 7 0 1 1 0 14zm-46 72h-162a7 7 0 1 1 0-14h162a7 7 0 1 1 0 14zm161-302h2v14h-2z"/><use xlink:href="#C"/><path d="M603.997 329.5h2v14h-2z"/><use xlink:href="#C" y="72"/><path d="M603.997 401.5h2v14h-2z"/><use xlink:href="#C" y="144"/><path d="M603.997 473.5h2v14h-2z"/><use xlink:href="#C" y="216"/><path d="M603.997 545.5h2v14h-2z"/><use xlink:href="#C" y="288"/><circle cx="620.997" cy="264.5" r="4"/><circle cx="620.997" cy="480.5" r="4"/><circle cx="620.997" cy="552.5" r="4"/></g><g fill="#3f3d56"><circle cx="451.497" cy="192" r="7"/><circle cx="451.497" cy="7" r="7"/><path d="M450.497 7h2v185h-2z"/></g><g fill="#2f2e41"><path d="M856.614 384.479v24.775s5.964 39.915 5.964 74.783-9.635 116.075-9.635 116.075-19.269 6.882-20.646-3.67-5.047-66.525-5.047-74.783-16.058-71.113-16.058-71.113L801.1 520.282s3.212 82.583 0 84.877-18.811 6.423-20.646 2.294-11.47-92.676-11.47-92.676-7.799-115.616-3.212-122.498 8.717-12.387 8.717-12.387 65.608-16.058 82.124 4.588z"/><path d="M850.649 597.359l1.151 7.479a73.83 73.83 0 0 1 .752 7.699c.179 3.757.804 9.545 2.945 10.463 3.212 1.376 24.056 18.956 9.375 19.873s-22.026 2.503-26.375-.873c-5.141-3.992.682-2.184-1.612-2.184s-5.047 0-5.964-3.67 1.376-10.093 1.376-10.093v-28.692zM782.145 597l-1.151 7.479a73.83 73.83 0 0 0-.752 7.699c-.179 3.757-.804 9.545-2.945 10.463-3.212 1.376-24.056 18.956-9.375 19.873s22.026 2.503 26.375-.873c5.141-3.992-.682-2.184 1.612-2.184s5.047 0 5.964-3.67-1.376-10.093-1.376-10.093V597z"/></g><use xlink:href="#D" fill="#ffb9b9"/><use xlink:href="#D" opacity=".1"/><path d="M806.605 224.819l20.646 4.588 15.14 152.32s-8.258 1.376-16.517 12.387-18.352 9.176-23.398 6.423-25.234-10.552-25.692-13.764.918-59.643.918-59.643l-12.846-88.088 6.423-9.635h11.47l9.176 7.8z" fill="#6c63ff"/><circle cx="775.407" cy="185.362" r="23.857" fill="#ffb9b9"/><path d="M809.817 217.019s44.962 4.588 49.091 14.223-2.753 52.303-2.753 52.303 16.517 37.162 16.058 45.879 15.599 68.36-1.835 61.478-11.929-24.775-20.646-11.929-12.387 11.011-12.387 11.011-8.717 14.223-11.47 12.846-4.588-11.929 1.376-16.975 5.047-13.764-6.423-30.28-23.399-103.229-16.517-116.534 5.506-22.022 5.506-22.022z" fill="#575a89"/><path fill="#ffb9b9" d="M856.614 393.196l-7.8 7.341-9.635-6.423 4.13-9.635 13.305 8.717z"/><path d="M776.783 224.819s-34.868 12.846-34.868 26.61 21.105 73.866 21.105 73.866 0 15.599-.918 19.269-15.353 35.683-2.753 38.539c7.865 1.783 14.327 6.466 14.911 13.076.693 7.849-5.315 17.755-4.817 19.499.918 3.212 6.423 7.799 5.964 5.506s3.67-35.327 10.093-50.009-2.753-113.322-4.588-126.168a141.99 141.99 0 0 0-4.129-20.187z" fill="#575a89"/><path fill="#ffb9b9" d="M758.432 392.278l8.258 19.729 6.194-12.617-7.112-15.829-7.34 8.717z"/><path d="M802.284 200.143s7.532 3.112 12.12 3.112 23.398 9.635 16.975 15.599-16.058 7.341-20.646 16.058-6.882 10.093-6.882 10.093l-8.168-10.972s11.38-12.885 10.921-17.014-4.321-16.876-4.321-16.876zm-30.41 11.031s-5.643 2.175-7.019 5.845-10.093 10.552-6.423 12.387 19.728 9.176 22.94 10.552 9.197-3.905 9.197-3.905-8.05-4.583-8.05-7.794-10.644-17.086-10.644-17.086z" fill="#6c63ff"/><path d="M752.926 245.006l-11.011 2.753s-15.14 67.902-10.552 84.877 26.151 67.902 26.151 67.902l13.764-16.058s-6.004-36.515-9.425-38.903-1.127-7.435-1.127-8.811 1.376-.459-1.835-3.67 11.929-21.105 7.799-26.151-13.764-61.937-13.764-61.937z" fill="#575a89"/><path d="M861.431 257.622l-6.653-25.004s17.893 12.846 21.563 31.657 17.893 56.432 8.717 72.948-25.234 64.231-30.739 63.314-18.811-12.387-19.269-14.223 23.857-44.044 20.187-47.256-2.753-11.47 0-13.305 5.964-10.552 3.67-10.093-9.176-4.129-7.799-9.176-6.882-38.997-6.882-38.997z" opacity=".1"/><path d="M852.484 229.407l6.423 1.835s17.893 12.846 21.563 31.657 17.893 56.432 8.717 72.948-25.234 64.231-30.739 63.314-18.811-12.387-19.269-14.223 23.857-44.044 20.187-47.256-2.753-11.47 0-13.305 5.964-10.552 3.67-10.093-9.176-4.129-7.799-9.176-6.882-38.997-6.882-38.997z" fill="#575a89"/><path d="M793.921 163.827l4.475-1.627s-9.356-9.356-22.373-8.542l3.661-3.661s-8.949-3.254-17.085 5.288c-4.277 4.491-9.225 9.769-12.31 15.715h-4.792l2 4-7 4 7.185-.719c-.681 3.453-.446 7.025.68 10.36l1.627 4.475s6.509-13.017 6.509-14.644v4.068s4.475-3.661 4.475-6.102l2.441 2.847 1.22-4.475 15.051 4.475-2.441-3.661 9.356 1.22-3.661-4.475s10.576 5.288 10.983 9.763 5.695 10.169 5.695 10.169l2.441-4.068s3.661-18.305-8.136-24.407z" fill="#2f2e41"/><ellipse cx="792.997" cy="182.5" rx="3.5" ry="5.5" fill="#ffb9b9"/><defs ><path id="B" d="M510.997 271.5h-229a7 7 0 1 1 0-14h229a7 7 0 1 1 0 14z"/><path id="C" d="M620.997 272.5a8 8 0 1 1 0-16 8 8 0 0 1 8 8 8.01 8.01 0 0 1-8 8zm0-14a6 6 0 1 0 0 12 6 6 0 0 0 6-6 6.01 6.01 0 0 0-6-6z"/><path id="D" d="M795.135 185.362s7.799 19.269 13.305 22.481 2.753 17.893 2.753 17.893l-13.764 19.269h-11.011l-13.305-22.94s-.918-15.14-3.67-18.811 25.692-17.893 25.692-17.893z"/></defs></svg>