<svg xmlns="http://www.w3.org/2000/svg" xmlns:xlink="http://www.w3.org/1999/xlink" width="888" height="613.913" xmlns:v="https://vecta.io/nano"><g fill="#e6e6e6"><path d="M119.323 442.841l-11.419-18.452c3.69-9.585 7.917-18.954 12.662-28.062l7.497 6.309-5.847-9.447c5.979-11.205 10.648-18.246 10.648-18.246s22.888 37.724 29.991 77.321l-15.595 23.069 17.015-13.186c.504 4.606.718 9.239.64 13.872-.94 46.708-16.957 84.264-35.774 83.886s-33.31-38.55-32.37-85.257c.291-14.48 3.872-29.563 8.673-43.485z"/><path d="M67.65 463.44l-19.313-9.893c-1.796-10.112-3.02-20.317-3.667-30.567l9.679 1.525-9.889-5.065c-.674-12.682-.317-21.123-.317-21.123s39.093 20.463 65.641 50.688l-1.425 27.809 7.75-20.083a110.5 110.5 0 0 1 7.718 11.545c23.338 40.47 29.041 80.899 12.736 90.302s-48.441-15.782-71.78-56.252c-7.235-12.546-11.966-27.309-15.053-41.709z"/><path d="M164.626 612.807c-22.254 1.424-46.502-.083-72.298 0v-59.061c22.731 3.539 46.971 3.175 72.298 0zm524.567-270.139l-236.174 38.028-1.001-229.601L688.192 0l1.001 342.668z"/></g><path fill="#fff" d="M667.176 308.643l-204.15 44.032V160.534L667.176 49.73v258.913z"/><path fill="#3f3d56" d="M647.162 132.514l-172.127 77.081V182.55l172.127-85.033v34.997z"/><path fill="#6c63ff" d="M647.162 204.567l-172.127 60.71v-26.685l172.127-68.557v34.532z"/><g fill="#e6e6e6"><path d="M541.536 171.132c.069-.281.316-.481.605-.491s.549.174.636.45l2.787 8.783 3.339 10.522c.101.319-.058.662-.367.791l-6.452 2.689-5.671 2.363c-.225.094-.483.053-.668-.106s-.265-.408-.206-.644l3.102-12.597z"/><use xlink:href="#B"/></g><path fill="#f2f2f2" d="M647.162 276.62l-172.127 44.339v-28.328l172.127-52.667v36.656z"/><use xlink:href="#C" fill="#3f3d56"/><use xlink:href="#D" fill="#fff"/><use xlink:href="#C" y="70.051" fill="#6c63ff"/><use xlink:href="#D" y="70.051" fill="#fff"/><use xlink:href="#C" y="140.103" fill="#f2f2f2"/><use xlink:href="#D" y="140.102" fill="#fff"/><use xlink:href="#B" x="16" y="58.046" fill="#e6e6e6"/><path d="M506.558 282.356l9.311-8.589s21.077-14.518 13.715-22.499-22.201 10.63-22.201 10.63l-9.208 6.032z" fill="#a0616a"/><path d="M383.45 286.352l-5.424 7.465s-7.58 29.15 30.778 30.698c0 0 48.989 23.749 61.115 8.87s45.588-50.669 45.588-50.669l-19.684-20.005-40.113 41.925-38.915-19.5s-20.045-11.054-33.347 1.216z" fill="#2f2e41"/><g fill="#e6e6e6"><path d="M357.923 424.679l-50.788 187.117 6.398 1.28 53.347-188.397h-8.957zm61.571 0l50.787 187.117-6.398 1.28-53.347-188.397h8.958zm-34.699-3.839l8.517 191.269 7.396.329-9.514-194.158-6.399 2.56z"/><path d="M408.469 417.814c0 4.851-13.281 10.059-30.712 11.733-18.708 1.796-34.911-1.119-34.911-6.634s16.203-10.948 34.911-12.059c17.431-1.035 30.712 2.109 30.712 6.96z"/></g><g fill="#2f2e41"><path d="M427.024 385.009l12.797 8.958s55.025 39.669 49.906 55.025-33.271 76.779-33.271 76.779l-35.83-11.517 40.949-65.262-21.754-20.474-11.517-28.152z"/><path d="M377.118 361.976s-25.593 39.669-10.237 51.186 58.864 56.305 58.864 56.305l8.958 20.474 31.991 103.652 39.669-20.474-35.83-80.618s-3.839-29.432-16.635-46.067-17.915-40.949-17.915-40.949l3.839-11.517-22.913-36.661z"/><path d="M446.708 518.438l-23-7s-24.837-1.023-23.557 7.935 21.754 67.821 28.152 63.983 1.28-21.754 1.28-21.754z"/></g><path fill="#a0616a" d="M395.672 237.21l-12.796 14.076 20.474 33.271 8.958-25.593-16.636-21.754z"/><path d="M407.829 286.476l-22.728-37.638-7.983 1.808v12.797l-2.559 107.491 42.228-6.398s2.559-69.101-8.958-78.059z" fill="#6c63ff"/><g fill="#2f2e41"><path d="M396.312 285.197l-19.195-34.551-16.635 7.678-29.432 120.287-17.915 34.551s58.864 29.432 72.94 0 15.356-94.694 15.356-94.694z"/><path d="M368.16 263.443l-7.678-5.119s-29.432-6.398-29.432 31.991c0 0-21.754 49.906-6.398 61.423s52.466 43.508 52.466 43.508l19.195-20.474-43.508-38.39 17.915-39.669s10.237-20.474-2.559-33.271z"/></g><path d="M377.118 386.289l8.958 8.958s15.356 20.474 23.034 12.797-11.517-21.754-11.517-21.754l-6.398-8.958z" fill="#a0616a"/><path d="M406.346 274.863l21.958 53.841s8.958 26.873 8.958 37.11v28.152l-24.313-31.991s-13.204-83.369-6.602-87.112zm69.912 308.524s-6.339 24.96 1.981 27.073 78.129 3.901 78.173-7.897-45.307-21.544-45.307-21.544l-16.754-10.75z" fill="#2f2e41"/><circle cx="411.668" cy="237.85" r="23.034" fill="#a0616a"/><path d="M436.23 233.714s4.499-19.497 0-23.996v2.999s-2.999-10.498-8.998-7.499c0 0-7.499-5.999-8.998-2.999-8.824-7.978-47.953-.499-28.959 41.389 0 0 3.463-12.894 3.463-8.395 0 0 8.998-8.998 10.498-11.998s26.995 16.497 32.994 10.498z" fill="#2f2e41"/><path fill="#3f3d56" d="M0 611.672h888v2.241H0z"/><defs ><path id="B" d="M531.185 236.623c.114-.463.522-.794.999-.809s.905.287 1.05.742l2.336 7.363 3.223 10.156c.167.526-.096 1.092-.605 1.305l-6.097 2.541-4.903 2.043c-.371.155-.797.087-1.102-.174s-.437-.673-.341-1.063l2.903-11.79z"/><path id="C" d="M643.159 151.982c0 6.027-2.7 12.02-6.004 13.374-3.275 1.342-5.909-2.386-5.909-8.318s2.634-11.896 5.909-13.334c3.304-1.45 6.004 2.251 6.004 8.278z"/><path id="D" d="M639.156 153.681c0 2.009-.897 4.014-2.001 4.477s-1.991-.785-1.991-2.783.89-4 1.991-4.473 2.001.77 2.001 2.779z"/></defs></svg>