<svg xmlns="http://www.w3.org/2000/svg" width="300" height="300" viewBox="0 0 24 24" fill="#00cca9" xmlns:v="https://vecta.io/nano"><path d="M16.595 9.344c.152.154.151.403-.002.556l-5.627 5.612a.39.39 0 0 1-.553-.002l-2.96-3c-.152-.154-.151-.403.002-.556l.741-.739a.39.39 0 0 1 .553.002l1.95 1.976 4.609-4.596a.39.39 0 0 1 .553.002l.735.745zm-4.834 12.654l-.064-1.926.3.005a8.06 8.06 0 0 0 8.075-8.049 8.06 8.06 0 0 0-8.075-8.049 7.72 7.72 0 0 0-.305.006l.066-1.981.212-.002C17.509 2 22 6.477 22 12s-4.491 10-10.031 10a10.26 10.26 0 0 1-.208-.002zm-2.405-.341c-.803-.215-1.566-.528-2.276-.923l.857-1.745a8.04 8.04 0 0 0 1.819.775l-.4 1.894zm-4.184-2.302c-.659-.606-1.237-1.299-1.715-2.06l1.632-1.093a8.08 8.08 0 0 0 1.338 1.657l-1.255 1.496zm-2.705-4.14c-.227-.668-.386-1.369-.467-2.092l1.967-.237a8.01 8.01 0 0 0 .355 1.653l-1.854.676zm-.462-4.386a9.93 9.93 0 0 1 .499-2.152l1.87.682a8 8 0 0 0-.397 1.708l-1.973-.238zM3.511 6.62A10.06 10.06 0 0 1 5.23 4.592l1.28 1.526a8.08 8.08 0 0 0-1.344 1.61L3.511 6.62zm3.615-3.38c.704-.387 1.459-.693 2.254-.904l.411 1.945a8.04 8.04 0 0 0-1.787.746L7.126 3.24z"/></svg>